<svg width="16" height="16" viewBox="0 0 16 16" fill="none" xmlns="http://www.w3.org/2000/svg">
<g id="ic:outline-remove-red-eye">
<path id="Vector" d="M7.99984 4.33333C9.22566 4.32926 10.4278 4.67119 11.4679 5.31982C12.5081 5.96845 13.3441 6.89744 13.8798 8C12.7798 10.2467 10.5332 11.6667 7.99984 11.6667C5.4665 11.6667 3.21984 10.2467 2.11984 8C2.65558 6.89744 3.49159 5.96845 4.53176 5.31982C5.57192 4.67119 6.77401 4.32926 7.99984 4.33333ZM7.99984 3C4.6665 3 1.81984 5.07333 0.666504 8C1.81984 10.9267 4.6665 13 7.99984 13C11.3332 13 14.1798 10.9267 15.3332 8C14.1798 5.07333 11.3332 3 7.99984 3ZM7.99984 6.33333C8.44186 6.33333 8.86579 6.50893 9.17835 6.82149C9.49091 7.13405 9.6665 7.55797 9.6665 8C9.6665 8.44203 9.49091 8.86595 9.17835 9.17851C8.86579 9.49107 8.44186 9.66667 7.99984 9.66667C7.55781 9.66667 7.13389 9.49107 6.82133 9.17851C6.50877 8.86595 6.33317 8.44203 6.33317 8C6.33317 7.55797 6.50877 7.13405 6.82133 6.82149C7.13389 6.50893 7.55781 6.33333 7.99984 6.33333ZM7.99984 5C6.3465 5 4.99984 6.34667 4.99984 8C4.99984 9.65333 6.3465 11 7.99984 11C9.65317 11 10.9998 9.65333 10.9998 8C10.9998 6.34667 9.65317 5 7.99984 5Z" fill="#131212" fill-opacity="0.26"/>
</g>
</svg>
